<svg width="32" height="32" viewBox="0 0 32 32" xmlns="http://www.w3.org/2000/svg">
  <!-- Strawberry body -->
  <path d="M16,5 Q24,2.5 21,16 Q20,26 16,29 Q12,26 11,16 Q8,2.5 16,5" fill="#ff3b5c"/>
  
  <!-- Strawberry seeds -->
  <circle cx="13" cy="11" r="1" fill="#ffeb3b"/>
  <circle cx="19" cy="11" r="1" fill="#ffeb3b"/>
  <circle cx="16" cy="14" r="1" fill="#ffeb3b"/>
  <circle cx="13" cy="17" r="1" fill="#ffeb3b"/>
  <circle cx="19" cy="17" r="1" fill="#ffeb3b"/>
  <circle cx="16" cy="20" r="1" fill="#ffeb3b"/>
  <circle cx="13" cy="23" r="1" fill="#ffeb3b"/>
  <circle cx="19" cy="23" r="1" fill="#ffeb3b"/>
  
  <!-- Strawberry leaves -->
  <path d="M16,5 Q11,0 8,2.5 Q5,5 11,6" fill="#4caf50"/>
  <path d="M16,5 Q21,0 24,2.5 Q27,5 21,6" fill="#4caf50"/>
</svg>